<svg id="Слой_1" data-name="Слой 1" xmlns="http://www.w3.org/2000/svg" viewBox="0 0 470.04 263.93"><defs><style>.cls-1{fill:#191413;}.cls-2{fill:#171211;}.cls-3{fill:#181312;}.cls-4{fill:#fbf9c4;}.cls-5{fill:#f9f6c3;}.cls-6{fill:#f9f6c2;}.cls-7{fill:#f8f5c2;}.cls-8{fill:#f7f5c1;}.cls-9{fill:#f5f3c0;}.cls-10{fill:#f3f001;}.cls-11{fill:#e6e6e6;}.cls-12{fill:#efed01;}.cls-13{fill:#e1e0e0;}.cls-14{fill:#eeecbb;}.cls-15{fill:#e4e4e3;}.cls-16{fill:#eaeaea;}.cls-17{fill:#e6e4b5;}.cls-18{fill:#d5d4d4;}.cls-19{fill:#25200f;}</style></defs><path class="cls-1" d="M396.94,374.55c-1.25.63-2.25,1-3.16,1.62s-1.92.69-2.42-.25a2.66,2.66,0,0,1,.33-2.23,13.58,13.58,0,0,1,2.43-2.2,13.66,13.66,0,0,1-2-.72c-.51-.3-1.35-.89-1.28-1.17a5.18,5.18,0,0,1,1.21-1.7.49.49,0,0,1,.36-.09c3.11.53,4.88-1.89,7.23-3.14,3.81-2,7.78-3.79,11.77-5.44,4.5-1.87,5.88-4.88,3.7-9.05l-5,1.17c-4.75,1.12-8.14,0-10.29-4.42a45.71,45.71,0,0,1-3.53-10.88c-1.6-7.77-2.92-15.6-6.28-22.88a61.35,61.35,0,0,0-13.71-19.49,76.23,76.23,0,0,1-17.84-24.06c-.78-1.72-1.79-3.34-2.7-5l-.78,0c-.19,1.31-.78,2.73-.49,3.92a76.1,76.1,0,0,0,3.26,10.61c3.51,8.53,7.54,16.86,10.82,25.48,1.73,4.58,2.3,9.59,3.46,14.4a6.94,6.94,0,0,0,1.12,2c1.07,1.64,2.28,3.21,3.21,4.92.29.53-.15,1.45-.25,2.2-.79-.35-1.82-.5-2.31-1.09-1-1.19-1.54-2.69-2.46-3.92-.41-.54-1.28-.72-1.94-1.07-.27.77-.88,1.61-.76,2.31.29,1.63,1,3.19,1.42,4.8s.71,3.22-1.67,4.25c-.34-1.23-.68-2.36-1-3.5a22.79,22.79,0,0,0-.82-3.23c-.24-.58-1-.94-1.48-1.4a5.94,5.94,0,0,0-1.17,1.73,6.93,6.93,0,0,0,.15,2.2,27,27,0,0,1,.31,3.69c0,.51-.66,1-1,1.51L362,333.22s0-.12,0-.18c.11-4.06-2.45-6.45-5.27-8.85-8-6.81-12.6-15.82-16.07-25.5-3.63-10.12-5.2-20.66-6.36-31.27-2.44-22.34-2.55-44.82-3.64-67.24-.29-6.06-1.05-12.1-1.36-18.17a79.54,79.54,0,0,1,.28-10c.22-2.84.7-5.66,1.15-8.47a16.69,16.69,0,0,1,5.08-9.73c2.9-2.69,6-5.17,9.16-7.56a2.82,2.82,0,0,0,1.34-3.08c-.67-4.47-1.37-8.95-1.73-13.46a48.58,48.58,0,0,1,.21-8.52c.28-3,2.05-3.92,4.64-2.49a46.48,46.48,0,0,1,5.71,3.81c3.75,2.86,7.43,5.81,11.09,8.78a7,7,0,0,0,5.55,1.48c6.3-.75,12.62-1.34,18.92-.24a61.54,61.54,0,0,1,8.45,2.15A4.89,4.89,0,0,0,404,134c4.49-3.32,9-6.64,13.52-9.88a30,30,0,0,1,4.83-2.77c3.22-1.47,5.06-.36,4.81,3.19a43.13,43.13,0,0,1-1.72,9.28c-1.46,4.79-3.18,9.52-5,14.18a10.25,10.25,0,0,0-.53,7.2c1.72,5.39,1.84,11,2.08,16.56.06,1.44.52,2,2.06,2.43,12.75,3.17,25.69,5.72,37.84,10.88a111.87,111.87,0,0,1,14.51,7.5c6.34,3.86,9.2,9.85,9,17.25a16,16,0,0,1-3.72,9.34c-3.61,4.74-8.46,8-13.47,11q-12.54,7.47-25.22,14.73c-1.63.94-2.46,2-2.26,4a15.16,15.16,0,0,1-3.42,11.43,15.66,15.66,0,0,0-2.17,4.08c-1.12,2.84-2.27,3.25-4.9,1.56-.2-.12-.39-.26-.9-.59a5.88,5.88,0,0,0,.15,1.6,35.74,35.74,0,0,0,2.53,5.55,29.31,29.31,0,0,1,4.5,18.09,2.64,2.64,0,0,0,1.31,2.6c12.89,9,18.85,22,20.56,37.13a29.17,29.17,0,0,1-.81,8.64c-.58,2.91-2.22,3.45-4.76,2-.54-.32-1.05-.67-1.57-1-2-1.3-2.67-1.08-3.6,1.15a6.16,6.16,0,0,0,.52,5.38c1.37,2.64,3,5.12,4.46,7.73,2,3.63,4.21,7.18,5.68,11,1.79,4.71.69,9.14-2.91,12.85a12.45,12.45,0,0,0-1.92,2.49c-.64,1.12-1.38,1.32-2.43.67-.36-.23-.73-.47-1.07-.73-1.91-1.41-2.34-1.48-3.88.28-1.19,1.36-2,1.62-3.54.36a107.19,107.19,0,0,0-9.16-6.33,3.52,3.52,0,0,0-2.59-.47c-8.5,2.44-17.16,2.34-25.86,1.9-2.22-.11-4.45-.49-6.37,1.19-.79.69-1.41.09-1.6-.77A11.66,11.66,0,0,1,396.94,374.55ZM384.1,243.65c-.2-2.13-.43-4.13-.58-6.15-.18-2.37-.71-2.75-3-2.19s-4.44,1.07-6.69,1.49a3.66,3.66,0,0,0-3.15,2.75,23.27,23.27,0,0,1-.91,3c-.2.46-.85.72-1.3,1.06-.37-.49-1-1-1.07-1.47-.08-1.23.27-2.48.16-3.7a2.8,2.8,0,0,0-1.06-2c-1.19-.62-3.38.41-4.2,1.57-1.74,2.49-1.17,5.17-.46,7.71a89.34,89.34,0,0,0,18.67,35.15c4.53,5.18,9.3,10.15,14.16,15a63,63,0,0,0,8.89,7.59c4.2,2.88,8.76,2.4,13-.23a10.22,10.22,0,0,0,4.93-11.16,60.38,60.38,0,0,0-1.85-6.79c-1.6-5.39-3.51-10.71-4.79-16.18-1.75-7.52-1.5-15.26-1.62-22.95a40.17,40.17,0,0,0-.71-7.18,6.45,6.45,0,0,0-6-5.44c-1.78-.21-3.59-.05-5.38-.17a2,2,0,0,0-2.38,1.94c-.35,2.14-.67,4.29-1.1,6.41-.09.43-.63.77-1,1.15-.35-.43-.95-.85-1-1.3-.06-1.1.21-2.22.2-3.33a7.4,7.4,0,0,0-.47-1.85,6,6,0,0,0-1.93.83,4.35,4.35,0,0,0-1.21,2c-.44,1.92-.71,3.88-1,5.83-.16,1-.18,2-.43,2.92a1.43,1.43,0,0,1-1,.88,1.45,1.45,0,0,1-1.07-.78,5.37,5.37,0,0,1-.47-2.15c0-1.79.23-3.59.27-5.38,0-1-.13-2-.22-3.11-2.05.65-1.92,2-1.84,3.29S386.41,243.39,384.1,243.65Zm38.26-29.2h.28c.22,4.76.27,9.54.7,14.29s1.11,5.1,5.39,3.12a103.39,103.39,0,0,0,25-16.54,15.56,15.56,0,0,0,2.86-3.4,3.51,3.51,0,0,0-1.17-5.3,15.64,15.64,0,0,0-4.19-1.94q-11.65-3.19-23.35-6.21c-3.72-.95-5.42.36-5.54,4.27S422.36,210.55,422.36,214.45Zm-49-34.93c0-.69.09-2.28-1.84-2a20.55,20.55,0,0,1-11-1.84,4.55,4.55,0,0,0-3.6.45,54.51,54.51,0,0,0-6.49,5c-4.17,3.62-3.34,7.67,1.88,9.51,1,.36,2.16.54,3.24.83,2.2.6,4.45,1.1,6.61,1.84a8.91,8.91,0,0,1,5.14,4,16.68,16.68,0,0,0,2.49,2.71c.69-1.17,1.44-2.31,2-3.52a5.44,5.44,0,0,0,.27-1.83C372.54,189.8,372.94,185,373.4,179.52Zm26-1.92c-2.44,0-3.18.57-2.61,2.09,1.88,5,3.8,9.94,5.86,14.85.87,2.07,2.56,2.51,4.19,1,3.66-3.51,7.24-7.13,10.55-11,1.88-2.17,1.48-4.7-.74-6.61a44.25,44.25,0,0,0-5.93-4.13c-1.9-1.16-2.26-1-3.26,1-1.36,2.65-2.93,3.5-5.87,3.14C400.75,177.81,399.89,177.67,399.42,177.6Zm-31.17,38.94c-.21,4.43-.52,8.3-.55,12.17,0,3.16,2.28,5.27,5.5,5.33,2.65.05,4.91-1.07,7.14-2.37s4.33-2.4,6.57-3.44c1-.48,1.58-1,1.48-2.19-.15-1.92-.09-3.85-.24-5.77a5.2,5.2,0,0,0-2.72-4.54c-1.88-1-3.32-.17-4.73,1a7.41,7.41,0,0,1-8.52.82A18.2,18.2,0,0,0,368.25,216.54Zm22.66,6.31H391c0,.5,0,1,0,1.49,0,3,.06,3,3.08,3.29,1.9.2,3.78.56,5.66.88,2.9.51,5.77,1.22,8.69,1.51a2.94,2.94,0,0,0,3.36-3.16,16.33,16.33,0,0,0-.84-5.24,14.2,14.2,0,0,1-.6-7.3,5.47,5.47,0,0,0-.06-2.35,2,2,0,0,0-1.21-1.19c-.32-.08-1,.49-1.22.92a12.82,12.82,0,0,0-.86,2.24c-.84,2.28-2.22,3.11-4.6,2.57a33.13,33.13,0,0,1-3.67-1.26c-3.52-1.24-6.84.44-7.55,3.9A26.64,26.64,0,0,0,390.91,222.85Zm-31.19-10.73c1.6.3,2.85.56,4.11.78,2.69.47,4-.54,3.78-3.26a21.5,21.5,0,0,0-1-5.46,14.13,14.13,0,0,0-7.37-8.46c-2.31-1.12-3.79-.37-3.82,2.07-.07,5,.1,10,.3,15a2.94,2.94,0,0,0,1.13,2.19,35.39,35.39,0,0,0,5.84,2.2c.46.13,1.16-.56,1.75-.87a6,6,0,0,0-1.43-1C361.58,214.82,360.15,214.45,359.72,212.12ZM417.47,317.3l.42,0a66.69,66.69,0,0,0-.73-7.36c-.45-2.26-2.22-2.94-4.05-1.54a8.82,8.82,0,0,0-2.91,3.88c-1.44,4.34-.92,8.84-.31,13.27a21.2,21.2,0,0,0,1.51,5.14,3.45,3.45,0,0,0,6.67-1.13,28.64,28.64,0,0,0,0-4.63C417.89,322.35,417.66,319.83,417.47,317.3ZM368.35,174.81l.19.44c1.78-.73,3.82-1.14,5.28-2.28,3.56-2.76,3.68-9.72.45-12.89a4.65,4.65,0,0,0-4.76-1.24c-4,1-5.71,4.12-7.07,7.5C360.36,171.5,362.8,174.93,368.35,174.81Zm109.33,24.68.55-.5a17.72,17.72,0,0,0-2.69-3,66.9,66.9,0,0,0-7.25-4.51c-7.72-4.11-16.07-6.53-24.47-8.72-5.93-1.55-11.94-2.79-17.95-4-2.23-.45-2.52,0-2.24,2.13C442.82,183.86,461.16,189,477.68,199.49Zm-80.29-35.58c.26-1-.48-1.43-1.74-1.67s-1.8.35-1.83,1.41a23.34,23.34,0,0,0,.09,6,7.39,7.39,0,0,0,10,5c1.84-.72,2.4-2.24,1.45-3.85s-2.11-.88-3.26-.45c-3.05,1.15-5.24-.42-5-3.66C397.12,165.87,397.25,165.08,397.39,163.91ZM368,144.56l.41.77a9.12,9.12,0,0,0,2.52-.19c3.08-1.1,5.79-.32,8.49,1.23a10.32,10.32,0,0,0,7.69,1.26,11.38,11.38,0,0,1,7.09.64,13.74,13.74,0,0,0,3,.5,3.5,3.5,0,0,0-3.28-3,30.47,30.47,0,0,0-5.73-.13,14.78,14.78,0,0,1-9.44-1.84,9.42,9.42,0,0,0-8.41-.78A11.91,11.91,0,0,0,368,144.56ZM397.55,138l.27-1a10.71,10.71,0,0,0-2.28-1.07,64.12,64.12,0,0,0-21.63-.44,11.42,11.42,0,0,0-2.9,1.29l.25,1A90.13,90.13,0,0,1,397.55,138Zm-6.65,91.85a42.48,42.48,0,0,0-4.54,1.26c-1.3.5-2.33,1.73-1.64,3.06a3.34,3.34,0,0,0,2.87,1.36,53.46,53.46,0,0,0,7.45-2.68,1.61,1.61,0,0,0,.57-1.4c-.07-.38-.66-.83-1.1-1C393.5,230.25,392.45,230.15,390.9,229.89Zm-30.65,5a4.48,4.48,0,0,0,4.13-6.12,3.45,3.45,0,0,0-2.08-1.84,2.7,2.7,0,0,0-2.21,1.17,17.85,17.85,0,0,0-1.81,4.78C358,234.11,358.86,234.89,360.25,234.84Zm25.65-35.43,0-.92a13.17,13.17,0,0,0-3.56-.55,17.47,17.47,0,0,0-9.75,4.51,5.12,5.12,0,0,0-1.05,1.27,1.12,1.12,0,0,0-.06,1,1,1,0,0,0,1,.2,11.93,11.93,0,0,0,2.75-1.48,13.23,13.23,0,0,1,7.22-3A19.81,19.81,0,0,0,385.9,199.41Zm-33.66-73a6.6,6.6,0,0,0,1.3,2c3.24,2.35,6.55,4.62,9.88,6.85a17.21,17.21,0,0,0,2.68,1.19C366,134,356.07,126.66,352.24,126.43ZM373.54,149a10.55,10.55,0,0,0-9.55,2.69,11.43,11.43,0,0,0-1.73,3,12.37,12.37,0,0,0,3.61-.44,46.58,46.58,0,0,0,5.77-3.32A12.9,12.9,0,0,0,373.54,149Zm-25.11.53c-3.59-1.23-12.5,6-12.05,9.65Zm91.35,183.71a10.94,10.94,0,0,0,2-1.31c.15-.14,0-.91-.28-1.09a7.3,7.3,0,0,1-2.9-4.34c-.24-.93-1.4-1.31-1.7-.18a6.78,6.78,0,0,0,.17,4C437.51,331.47,438.78,332.23,439.78,333.24ZM361.39,223.07a4.37,4.37,0,0,0,1.16,0c.63-.27,1.24-.59,1.86-.9-.37-.57-.61-1.45-1.12-1.67a16.9,16.9,0,0,0-4.24-1.17c-.66-.09-1.42.51-2.13.79.48.78.78,1.87,1.48,2.25A9.72,9.72,0,0,0,361.39,223.07Zm41.55-84.79.35.65a7.11,7.11,0,0,0,2.48-.54,62.78,62.78,0,0,0,5.05-4c.23-.2.18-.74.25-1.12-.44-.08-1-.39-1.31-.22a39.55,39.55,0,0,0-4.38,2.73A22.5,22.5,0,0,0,402.94,138.28Zm-12.05,11.47c-.25.11-.89.22-.93.44a1.51,1.51,0,0,0,.39,1.26c1.72,1.18,3.48,2.3,5.29,3.34.3.18.95,0,1.29-.27.14-.1,0-.85-.21-1.14A9.66,9.66,0,0,0,390.89,149.75ZM445,304.35c-.41-2.92-5-7.06-7.51-7A15.76,15.76,0,0,0,445,304.35ZM406.53,199.5c.88,2.27,1.59,4.39,2.53,6.4.33.7,1.34,1.19,1.84,0C411.74,204,409.14,199.89,406.53,199.5Zm-19.47-56.83c-1.52-2.28-6.72-4.14-8.74-3.23A14.32,14.32,0,0,0,387.06,142.67Z" transform="translate(-15.35 -118.05)"/><path class="cls-2" d="M231.74,285.51l14.85-16.13c2.4-2.6,4.87-5.12,7.14-7.83a4.32,4.32,0,0,1,4.14-1.75,25.41,25.41,0,0,0,2.91,0v59.52H245.44V293.43c-2,1.9-3.86,3.61-5.65,5.4-2.14,2.15-4.23,4.36-6.31,6.58-1.13,1.2-2.17,1.19-3.29,0q-5.13-5.4-10.27-10.77c-.4-.43-.74-.91-1.11-1.37l-.4.25v25.81H202.94V259.82a43,43,0,0,1,4.83.06,3.54,3.54,0,0,1,1.9,1.22C217,269.16,224.29,277.26,231.74,285.51Z" transform="translate(-15.35 -118.05)"/><path class="cls-2" d="M191.35,289.84c0,15.61-8.66,26.78-23.38,30.16-13.47,3.09-27.46-2.81-33.84-14.31-5.66-10.2-5.5-27.62,4.16-37.48,7.22-7.38,16.16-10.1,26.24-9,10.25,1.08,18.27,5.91,23.3,15.11A30,30,0,0,1,191.35,289.84Zm-15.55.07c-.05-.77-.08-1.63-.15-2.5a14.47,14.47,0,0,0-10-12.84c-6-1.82-11.44-.57-15.73,4.16-3.54,3.9-4.18,8.71-3.66,13.73a14.75,14.75,0,0,0,19.28,12.76C171.85,303.2,175.59,297.66,175.8,289.91Z" transform="translate(-15.35 -118.05)"/><path class="cls-3" d="M54.8,288.36c6.8,5.36,8.57,11.43,5.75,19.53-2.51,7.19-8.75,11.52-16.68,11.54H15.35V259.94H40.68a18.06,18.06,0,0,1,18.47,19.31A13.31,13.31,0,0,1,54.8,288.36ZM30.1,305.8c4.32,0,8.57.14,12.8-.06,2.26-.11,3.72-2.28,3.74-4.79S45.17,296.12,43,296c-4.29-.2-8.6-.06-12.93-.06Zm0-22.79c3.43,0,6.76.12,10.09,0,2.3-.11,3.78-2,3.83-4.46s-1.47-4.68-3.73-4.8c-3.38-.18-6.77,0-10.19,0Z" transform="translate(-15.35 -118.05)"/><path class="cls-2" d="M210.46,234.58a19.78,19.78,0,0,1,1.25-3.67c3.48-5.77,7-11.48,10.64-17.31a21.06,21.06,0,0,1-7.69-10.69c-3.83-12,2.8-27.77,20.3-27.81,8.62,0,17.24,0,26,0v59.38H246V217.09c-2.56,0-5-.06-7.35,0-.43,0-.95.66-1.23,1.14-3,5-5.85,10-8.84,15a2.59,2.59,0,0,1-1.73,1.22C221.61,234.62,216.34,234.58,210.46,234.58Zm35.4-31.27V188.77c-3.68,0-7.25-.07-10.83,0a6.09,6.09,0,0,0-6.12,5.58c-.61,4,1.08,7.53,4.13,8.63a3.94,3.94,0,0,0,1.25.3C238.11,203.32,241.94,203.31,245.86,203.31Z" transform="translate(-15.35 -118.05)"/><path class="cls-2" d="M79,319.72V326H66.37v-19.8c1.52,0,2.93-.11,4.32,0s1.92-.48,2.42-1.65c6.25-14.53,12.56-29,18.8-43.57.58-1.37,1.34-1.69,2.81-1.91,3.71-.54,5.27,1.05,6.7,4.38,5.91,13.8,12.2,27.43,18.29,41.15a2.17,2.17,0,0,0,2.47,1.6c1.4-.12,2.83,0,4.31,0V326H114.17v-6.28ZM96,284.78C93.22,292.12,90.58,299,87.89,306h16.6Z" transform="translate(-15.35 -118.05)"/><path class="cls-2" d="M307.51,175.17H323.2c-.22,4.36-.25,8.67-.69,13-.77,7.63-4.24,13.75-10.9,17.94,5.13,8.31,10.22,16.5,15.22,24.74a19.12,19.12,0,0,1,1.28,3.78c-5.9,0-11.28,0-16.66-.05-.48,0-1.11-.65-1.4-1.15-3.86-6.69-7.71-13.39-11.46-20.15a2.3,2.3,0,0,0-2.74-1.42,27.47,27.47,0,0,1-4,0v22.61h-15.4V175.2h15.24v22.1c8.65,1.52,14.7-3.45,15.34-12.46C307.29,181.65,307.36,178.44,307.51,175.17Z" transform="translate(-15.35 -118.05)"/><path class="cls-2" d="M329,319.43c-5.21,0-9.91,0-14.61,0a1.74,1.74,0,0,1-1.16-.88,34.49,34.49,0,0,1-2.11-4.53c-.58-1.68-1.59-2.07-3.3-2-6.51.11-13,.07-19.53,0a1.88,1.88,0,0,0-2.1,1.29c-.86,2-1.36,4.84-2.94,5.82s-4.44.33-6.72.35c-2.66,0-5.32,0-8.43,0a20.39,20.39,0,0,1,.91-3.55c8.44-18.41,16.95-36.8,25.39-55.21a2.49,2.49,0,0,1,2.34-1.54c3.81-.57,5.59.91,7.19,4.49,7.75,17.37,15.9,34.56,23.87,51.83A30.49,30.49,0,0,1,329,319.43Zm-23.82-20.54-6.79-15.37c-2.28,5.33-4.42,10.31-6.59,15.37Z" transform="translate(-15.35 -118.05)"/><path class="cls-4" d="M384.1,243.65c2.31-.26,2.38-1.53,2.29-2.91s-.21-2.64,1.84-3.29c.09,1.13.24,2.12.22,3.11,0,1.79-.24,3.59-.27,5.38a5.37,5.37,0,0,0,.47,2.15,1.45,1.45,0,0,0,1.07.78,1.43,1.43,0,0,0,1-.88c.25-.94.27-2,.43-2.92.32-1.95.59-3.91,1-5.83a4.35,4.35,0,0,1,1.21-2,6,6,0,0,1,1.93-.83,7.4,7.4,0,0,1,.47,1.85c0,1.11-.26,2.23-.2,3.33,0,.45.63.87,1,1.3.33-.38.87-.72,1-1.15.43-2.12.75-4.27,1.1-6.41a2,2,0,0,1,2.38-1.94c1.79.12,3.6,0,5.38.17a6.45,6.45,0,0,1,6,5.44,40.17,40.17,0,0,1,.71,7.18c.12,7.69-.13,15.43,1.62,22.95,1.28,5.47,3.19,10.79,4.79,16.18a60.38,60.38,0,0,1,1.85,6.79,10.22,10.22,0,0,1-4.93,11.16c-4.21,2.63-8.77,3.11-13,.23a63,63,0,0,1-8.89-7.59c-4.86-4.87-9.63-9.84-14.16-15a89.34,89.34,0,0,1-18.67-35.15c-.71-2.54-1.28-5.22.46-7.71.82-1.16,3-2.19,4.2-1.57a2.8,2.8,0,0,1,1.06,2c.11,1.22-.24,2.47-.16,3.7,0,.51.7,1,1.07,1.47.45-.34,1.1-.6,1.3-1.06a23.27,23.27,0,0,0,.91-3,3.66,3.66,0,0,1,3.15-2.75c2.25-.42,4.47-1,6.69-1.49s2.86-.18,3,2.19C383.67,239.52,383.9,241.52,384.1,243.65Z" transform="translate(-15.35 -118.05)"/><path class="cls-5" d="M373.4,179.52c-.46,5.47-.86,10.28-1.27,15.09a5.44,5.44,0,0,1-.27,1.83c-.59,1.21-1.34,2.35-2,3.52a16.68,16.68,0,0,1-2.49-2.71,8.91,8.91,0,0,0-5.14-4c-2.16-.74-4.41-1.24-6.61-1.84-1.08-.29-2.19-.47-3.24-.83-5.22-1.84-6.05-5.89-1.88-9.51a54.51,54.51,0,0,1,6.49-5,4.55,4.55,0,0,1,3.6-.45,20.55,20.55,0,0,0,11,1.84C373.49,177.24,373.42,178.83,373.4,179.52Z" transform="translate(-15.35 -118.05)"/><path class="cls-6" d="M399.42,177.6c.47.07,1.33.21,2.19.32,2.94.36,4.51-.49,5.87-3.14,1-1.95,1.36-2.14,3.26-1a44.25,44.25,0,0,1,5.93,4.13c2.22,1.91,2.62,4.44.74,6.61-3.31,3.83-6.89,7.45-10.55,11-1.63,1.55-3.32,1.11-4.19-1-2.06-4.91-4-9.87-5.86-14.85C396.24,178.17,397,177.56,399.42,177.6Z" transform="translate(-15.35 -118.05)"/><path class="cls-7" d="M368.25,216.54a18.2,18.2,0,0,1,3.93,1,7.41,7.41,0,0,0,8.52-.82c1.41-1.12,2.85-2,4.73-1a5.2,5.2,0,0,1,2.72,4.54c.15,1.92.09,3.85.24,5.77.1,1.21-.45,1.71-1.48,2.19-2.24,1-4.44,2.19-6.57,3.44s-4.49,2.42-7.14,2.37c-3.22-.06-5.52-2.17-5.5-5.33C367.73,224.84,368,221,368.25,216.54Z" transform="translate(-15.35 -118.05)"/><path class="cls-8" d="M390.91,222.85a26.64,26.64,0,0,1,.25-3.7c.71-3.46,4-5.14,7.55-3.9a33.13,33.13,0,0,0,3.67,1.26c2.38.54,3.76-.29,4.6-2.57a12.82,12.82,0,0,1,.86-2.24c.25-.43.9-1,1.22-.92a2,2,0,0,1,1.21,1.19,5.47,5.47,0,0,1,.06,2.35,14.2,14.2,0,0,0,.6,7.3,16.33,16.33,0,0,1,.84,5.24,2.94,2.94,0,0,1-3.36,3.16c-2.92-.29-5.79-1-8.69-1.51-1.88-.32-3.76-.68-5.66-.88-3-.31-3-.26-3.08-3.29,0-.5,0-1,0-1.49Z" transform="translate(-15.35 -118.05)"/><path class="cls-9" d="M359.72,212.12c.43,2.33,1.86,2.7,3.27,3.19a6,6,0,0,1,1.43,1c-.59.31-1.29,1-1.75.87a35.39,35.39,0,0,1-5.84-2.2,2.94,2.94,0,0,1-1.13-2.19c-.2-5-.37-10-.3-15,0-2.44,1.51-3.19,3.82-2.07a14.13,14.13,0,0,1,7.37,8.46,21.5,21.5,0,0,1,1,5.46c.19,2.72-1.09,3.73-3.78,3.26C362.57,212.68,361.32,212.42,359.72,212.12Z" transform="translate(-15.35 -118.05)"/><path class="cls-10" d="M368.35,174.81c-5.55.12-8-3.31-5.91-8.47,1.36-3.38,3.09-6.49,7.07-7.5a4.65,4.65,0,0,1,4.76,1.24c3.23,3.17,3.11,10.13-.45,12.89-1.46,1.14-3.5,1.55-5.28,2.28Zm.16-4.24c2.23,0,3.93-1.25,4-3a4,4,0,0,0-3.56-3.89c-1.27-.08-2.76,2.31-2.78,4.46A2.16,2.16,0,0,0,368.51,170.57Z" transform="translate(-15.35 -118.05)"/><path class="cls-11" d="M477.68,199.49c-16.52-10.51-34.86-15.63-54.05-18.63-.28-2.09,0-2.58,2.24-2.13,6,1.23,12,2.47,17.95,4,8.4,2.19,16.75,4.61,24.47,8.72a66.9,66.9,0,0,1,7.25,4.51,17.72,17.72,0,0,1,2.69,3Z" transform="translate(-15.35 -118.05)"/><path class="cls-12" d="M397.39,163.91c-.14,1.17-.27,2-.32,2.77-.21,3.24,2,4.81,5,3.66,1.15-.43,2.35-1.08,3.26.45s.39,3.13-1.45,3.85a7.39,7.39,0,0,1-10-5,23.34,23.34,0,0,1-.09-6c0-1.06.53-1.65,1.83-1.41S397.65,162.87,397.39,163.91Z" transform="translate(-15.35 -118.05)"/><path class="cls-13" d="M368,144.56a11.91,11.91,0,0,1,2.36-1.56,9.42,9.42,0,0,1,8.41.78,14.78,14.78,0,0,0,9.44,1.84,30.47,30.47,0,0,1,5.73.13,3.5,3.5,0,0,1,3.28,3,13.74,13.74,0,0,1-3-.5,11.38,11.38,0,0,0-7.09-.64,10.32,10.32,0,0,1-7.69-1.26c-2.7-1.55-5.41-2.33-8.49-1.23a9.12,9.12,0,0,1-2.52.19Z" transform="translate(-15.35 -118.05)"/><path class="cls-13" d="M397.55,138a90.13,90.13,0,0,0-26.29-.24l-.25-1a11.42,11.42,0,0,1,2.9-1.29,64.12,64.12,0,0,1,21.63.44,10.71,10.71,0,0,1,2.28,1.07Z" transform="translate(-15.35 -118.05)"/><path class="cls-14" d="M390.9,229.89c1.55.26,2.6.36,3.61.64.44.13,1,.58,1.1,1a1.61,1.61,0,0,1-.57,1.4,53.46,53.46,0,0,1-7.45,2.68,3.34,3.34,0,0,1-2.87-1.36c-.69-1.33.34-2.56,1.64-3.06A42.48,42.48,0,0,1,390.9,229.89Z" transform="translate(-15.35 -118.05)"/><path class="cls-14" d="M360.25,234.84c-1.39,0-2.25-.73-2-2a17.85,17.85,0,0,1,1.81-4.78,2.7,2.7,0,0,1,2.21-1.17,3.45,3.45,0,0,1,2.08,1.84A4.48,4.48,0,0,1,360.25,234.84Z" transform="translate(-15.35 -118.05)"/><path class="cls-15" d="M385.9,199.41a19.81,19.81,0,0,1-3.52,1,13.23,13.23,0,0,0-7.22,3,11.93,11.93,0,0,1-2.75,1.48,1,1,0,0,1-1-.2,1.12,1.12,0,0,1,.06-1,5.12,5.12,0,0,1,1.05-1.27,17.47,17.47,0,0,1,9.75-4.51,13.17,13.17,0,0,1,3.56.55Z" transform="translate(-15.35 -118.05)"/><path class="cls-15" d="M352.24,126.43c3.83.23,13.72,7.6,13.86,10a17.21,17.21,0,0,1-2.68-1.19c-3.33-2.23-6.64-4.5-9.88-6.85A6.6,6.6,0,0,1,352.24,126.43Z" transform="translate(-15.35 -118.05)"/><path class="cls-16" d="M373.54,149a12.9,12.9,0,0,1-1.9,1.93,46.58,46.58,0,0,1-5.77,3.32,12.37,12.37,0,0,1-3.61.44,11.43,11.43,0,0,1,1.73-3A10.55,10.55,0,0,1,373.54,149Z" transform="translate(-15.35 -118.05)"/><path class="cls-15" d="M348.43,149.53l-12.05,9.65C335.93,155.53,344.84,148.3,348.43,149.53Z" transform="translate(-15.35 -118.05)"/><path class="cls-15" d="M439.78,333.24c-1-1-2.27-1.77-2.72-2.88a6.78,6.78,0,0,1-.17-4c.3-1.13,1.46-.75,1.7.18a7.3,7.3,0,0,0,2.9,4.34c.25.18.43,1,.28,1.09A10.94,10.94,0,0,1,439.78,333.24Z" transform="translate(-15.35 -118.05)"/><path class="cls-17" d="M361.39,223.07a9.72,9.72,0,0,1-3-.71c-.7-.38-1-1.47-1.48-2.25.71-.28,1.47-.88,2.13-.79a16.9,16.9,0,0,1,4.24,1.17c.51.22.75,1.1,1.12,1.67-.62.31-1.23.63-1.86.9A4.37,4.37,0,0,1,361.39,223.07Z" transform="translate(-15.35 -118.05)"/><path class="cls-15" d="M402.94,138.28a22.5,22.5,0,0,1,2.44-2.53,39.55,39.55,0,0,1,4.38-2.73c.3-.17.87.14,1.31.22-.07.38,0,.92-.25,1.12a62.78,62.78,0,0,1-5.05,4,7.11,7.11,0,0,1-2.48.54Z" transform="translate(-15.35 -118.05)"/><path class="cls-13" d="M390.89,149.75a9.66,9.66,0,0,1,5.83,3.63c.22.29.35,1,.21,1.14-.34.23-1,.45-1.29.27-1.81-1-3.57-2.16-5.29-3.34a1.51,1.51,0,0,1-.39-1.26C390,150,390.64,149.86,390.89,149.75Z" transform="translate(-15.35 -118.05)"/><path class="cls-13" d="M445,304.35a15.76,15.76,0,0,1-7.51-7C440.08,297.29,444.63,301.43,445,304.35Z" transform="translate(-15.35 -118.05)"/><path class="cls-17" d="M406.53,199.5c2.61.39,5.21,4.49,4.37,6.43-.5,1.16-1.51.67-1.84,0C408.12,203.89,407.41,201.77,406.53,199.5Z" transform="translate(-15.35 -118.05)"/><path class="cls-18" d="M387.06,142.67a14.32,14.32,0,0,1-8.74-3.23C380.34,138.53,385.54,140.39,387.06,142.67Z" transform="translate(-15.35 -118.05)"/><path class="cls-19" d="M368.51,170.57a2.16,2.16,0,0,1-2.33-2.48c0-2.15,1.51-4.54,2.78-4.46a4,4,0,0,1,3.56,3.89C372.44,169.32,370.74,170.61,368.51,170.57Z" transform="translate(-15.35 -118.05)"/></svg>