<svg xmlns="http://www.w3.org/2000/svg" width="16.013" height="15.319" viewBox="0 0 16.013 15.319">
  <g id="Group_25" data-name="Group 25" transform="translate(-837.833 -1292.109)">
    <g id="новая-версия" transform="translate(838.845 1293.109)">
      <g id="карточка-товара-кофе" transform="translate(0 0)">
        <g id="главный-слайд" transform="translate(0)">
          <g id="фон">
            <g id="Group-2">
              <g id="купить">
                <g id="Group-11">
                  <g id="Group-18">
                    <path id="Rectangle-2" d="M12.19,12.268a1.625,1.625,0,0,1,.01.177,1.6,1.6,0,0,1-1.6,1.6H2.117a1.645,1.645,0,0,1-.178-.01A1.6,1.6,0,0,1,.528,12.268l.629-5.632A1.6,1.6,0,0,1,2.744,5.214H10.02" transform="translate(-0.518 -0.724)" fill="none" stroke="#fff" stroke-linecap="round" stroke-width="2"/>
                    <path id="Oval-12" d="M9.393,3.968A3.088,3.088,0,0,0,6.2,1,3.088,3.088,0,0,0,3,3.968" transform="translate(-0.355 -1)" fill="none" stroke="#fff" stroke-linecap="round" stroke-linejoin="round" stroke-width="2"/>
                  </g>
                </g>
              </g>
            </g>
          </g>
        </g>
      </g>
    </g>
    <path id="Path_36" data-name="Path 36" d="M3994.082,892.563v4.8" transform="translate(-3143.636 405.288)" fill="none" stroke="#fff" stroke-linecap="round" stroke-width="2"/>
    <path id="Path_37" data-name="Path 37" d="M0,0V4.8" transform="translate(852.845 1300.25) rotate(90)" fill="none" stroke="#fff" stroke-linecap="round" stroke-width="2"/>
  </g>
</svg>
